<?xml version="1.0" encoding="UTF-8"?>
<svg fill="#009f88" xmlns="http://www.w3.org/2000/svg" xmlns:xlink="http://www.w3.org/1999/xlink" width="91"
  height="119" viewBox="0 0 60 60" version="1.1">
  <!-- Generator: Sketch 51.3 (57544) - http://www.bohemiancoding.com/sketch -->
  <title>020 - Relax</title>
  <desc>Created with Sketch.</desc>
  <defs />
  <g id="Page-1" stroke="none" stroke-width="1" fill="none" fill-rule="evenodd">
    <g id="020---Relax" transform="translate(-1.000000, 0.000000)" fill="#009f88" fill-rule="nonzero">
      <path
        d="M20.957,6.607 C20.7959777,6.07876537 20.2372564,5.7810493 19.709,5.942 C17.6483921,6.47750189 15.7606426,7.53520641 14.228,9.013 C12.8336782,10.5109919 11.756452,12.2753027 11.061,14.2 C10.7612032,15.086623 10.5141052,15.9902005 10.321,16.906 L10.221,17.339 C10.1356254,17.6881834 10.2442362,18.0563226 10.5054777,18.3032451 C10.7667192,18.5501676 11.1403903,18.6378757 11.4842121,18.5329737 C11.8280339,18.4280717 12.0890973,18.1467025 12.168,17.796 L12.268,17.361 C12.4434278,16.5255136 12.6667971,15.7008165 12.937,14.891 C13.5401016,13.2219058 14.4733406,11.6914483 15.681,10.391 C16.9771231,9.16914541 18.5634442,8.29802828 20.29,7.86 C20.5451874,7.78315248 20.7591427,7.60762064 20.8843727,7.37236841 C21.0096028,7.13711618 21.0357463,6.86160793 20.957,6.607 Z"
        id="Shape" />
      <circle id="Oval" cx="10" cy="21" r="1" />
      <path
        d="M52.012,16.02 C53.9862856,13.70223 55.1795191,10.8209735 55.422,7.786 C55.4898511,7.18088529 55.2783413,6.57781915 54.84739,6.14764645 C54.4164387,5.71747374 53.812991,5.5070548 53.208,5.576 C50.1754958,5.82979397 47.2980839,7.02481147 44.978,8.994 C44.7405135,5.95584538 43.5463539,3.07109761 41.567,0.754 C41.1869795,0.276855635 40.609985,-0.000779265329 40,-5.55111512e-16 C39.3886902,6.29532594e-05 38.810736,0.278732604 38.43,0.757 C38.409,0.783 38.393,0.809 38.372,0.835 C35.9819154,0.168067126 33.4985962,-0.102189359 31.021,0.035 C27.7670828,0.26068862 24.5340865,0.724598351 21.348,1.423 C16.839,2.323 13.562,3.904 11.325,6.268 C9.56041114,8.15617091 8.19604573,10.3818111 7.314,12.811 C6.95301082,13.8549072 6.65612464,14.9198904 6.425,16 L6.325,16.422 C6.1115707,17.2063052 5.82532664,17.9689531 5.47,18.7 C5.27,19.156 5.062,19.612 4.883,20.084 C4.65284498,20.6094053 4.56192334,21.1852424 4.619,21.756 C4.82021123,22.6521932 5.3374331,23.4459531 6.076,23.992 C6.565,24.44 6.886,24.756 6.89,25.031 C6.85421996,25.1830023 6.79697882,25.3291355 6.72,25.465 C5.52247783,27.986227 4.05560327,30.370443 2.345,32.576 C1.62,33.458 0.86,34.487 1.02,35.517 C1.23211923,36.311598 1.75555427,36.9871609 2.472,37.391 C2.80078202,37.6194083 3.14797678,37.8200989 3.51,37.991 C3.942,38.212 4.667,38.582 4.718,38.841 C4.78085126,39.1828692 4.73974795,39.5357307 4.6,39.854 C4.451,40.174 4.295,40.449 4.16,40.686 C3.794,41.333 3.181,42.417 4.105,43.172 C4.321,43.372 4.694,43.661 5.034,43.922 C4.78370505,44.359639 4.67048978,44.8623148 4.709,45.365 C4.76206133,45.7609003 4.97674391,46.1171358 5.302,46.349 C5.524,46.505 5.761,46.641 5.994,46.774 C6.586,47.11 6.817,47.267 6.894,47.581 C6.94956021,47.9834802 6.91541128,48.3932674 6.794,48.781 C6.735,49.048 6.678,49.316 6.644,49.581 C6.54469822,50.4923539 6.65729272,51.4143284 6.973,52.275 C7.42281456,53.8638526 8.85996076,54.9707558 10.511,55 C10.7865929,54.9991845 11.0613714,54.9700312 11.331,54.913 C14.1877778,54.2358183 17.0028445,53.3934018 19.762,52.39 C22.015,53.712 23.438,57.732 23.809,59.241 C23.9197719,59.6870872 24.3203652,60.0002183 24.78,60 L49.88,59.93 C50.198095,59.9293833 50.4969218,59.7774667 50.6848608,59.5208273 C50.8727998,59.2641879 50.9274293,58.9334437 50.832,58.63 C50.584758,57.9524505 50.2437748,57.3128965 49.819,56.73 C49.5792082,56.3843183 49.3630492,56.0228282 49.172,55.648 C48.7190564,54.7315437 48.3414759,53.7797332 48.043,52.802 C47.4717419,50.8695435 47.0758071,48.8895347 46.86,46.886 C46.5085902,43.8931461 46.9625538,40.8607384 48.175,38.102 C48.5646602,37.2334645 49.0378889,36.4048956 49.588,35.628 C50.7625784,36.0217591 51.9763051,36.2873037 53.208,36.42 C53.2816669,36.428842 53.3558045,36.4331834 53.43,36.433 C54.0004932,36.4335815 54.5440817,36.1905058 54.924009,35.7649261 C55.3039363,35.3393464 55.4840366,34.7717743 55.419,34.205 C55.1757611,31.1677257 53.9799434,28.2847446 52.002,25.967 C55.038168,25.7321472 57.9219986,24.5419282 60.24,22.567 C60.718515,22.1864271 60.9973463,21.6084019 60.9973463,20.997 C60.9973463,20.3855981 60.718515,19.8075729 60.24,19.427 C57.9252038,17.4521327 55.0453074,16.2596427 52.012,16.02 Z M53.434,7.569 C52.999,11.474 51.388,14.432 48.642,16.363 C47.5893243,17.0962098 46.4277682,17.6591022 45.2,18.031 C44.7541978,17.249577 44.139168,16.5778277 43.4,16.065 C44.0290591,14.8500764 44.4828983,13.5521907 44.748,12.21 C46.8225469,9.46396058 49.9981324,7.76721962 53.434,7.569 Z M42.854,30.578 C43.3295648,33.9858668 42.2809098,37.4302981 39.987,39.995 C37.53,36.927 36.58,33.695 37.163,30.395 C37.3897378,29.1340319 37.8107452,27.9158767 38.411,26.784 C39.2803728,27.0308853 40.1955023,27.070614 41.083,26.9 C41.4956806,28.2038791 42.0920044,29.4423201 42.854,30.578 Z M35.307,12.271 C35.3231252,12.3002659 35.3408176,12.3286404 35.36,12.356 C36.0928693,13.406845 36.6560708,14.566318 37.029,15.792 C36.2473546,16.2378741 35.5752933,16.8528767 35.062,17.592 C33.8470284,16.9630522 32.5491589,16.5092187 31.207,16.244 C28.4617008,14.1699544 26.7656411,10.9950067 26.568,7.56 C30.0320171,7.76889054 33.2284599,9.49202158 35.307,12.271 Z M30.607,18.171 C31.8682105,18.3968087 33.0865064,18.8178648 34.218,19.419 C33.9711147,20.2883728 33.931386,21.2035023 34.102,22.091 C32.7972439,22.5025946 31.5580386,23.0986255 30.422,23.861 C27.0118818,24.3370166 23.5652144,23.2867744 21,20.99 C24.071,18.532 27.3,17.583 30.606,18.166 L30.607,18.171 Z M31.27,25.696 C31.299,25.679 31.327,25.661 31.355,25.642 C32.4058839,24.909439 33.5653606,24.3465731 34.791,23.974 C35.2371041,24.7552029 35.8520779,25.4268909 36.591,25.94 C35.9628443,27.1548651 35.5093684,28.4523381 35.244,29.794 C33.1707842,32.5404153 29.9954379,34.2370536 26.56,34.434 C26.7672573,30.9688917 28.489744,27.7708238 31.269,25.691 L31.27,25.696 Z M40,25 C37.790861,25 36,23.209139 36,21 C36,18.790861 37.790861,17 40,17 C42.209139,17 44,18.790861 44,21 C44,23.209139 42.209139,25 40,25 Z M40.01,2.005 C42.468,5.073 43.418,8.305 42.835,11.605 C42.6086862,12.8660788 42.1876567,14.0842981 41.587,15.216 C41.0700666,15.0732233 40.5362882,15.0005729 40,15 C39.6360633,15.0006639 39.2729272,15.0341327 38.915,15.1 C38.5024686,13.7951232 37.9061444,12.5556712 37.144,11.419 C36.6691091,8.01279043 37.7161124,4.57007683 40.007,2.005 L40.01,2.005 Z M46.343,37.31 C44.9896868,40.3947013 44.4836273,43.7845409 44.877,47.13 C45.1076596,49.2534653 45.5286863,51.3519052 46.135,53.4 C46.4640482,54.4749292 46.879054,55.5216399 47.376,56.53 C47.6041562,56.9828684 47.8630969,57.4195592 48.151,57.837 L48.218,57.937 L25.536,58 C24.8721602,55.6278229 23.6672676,53.4419012 22.016,51.614 L22.916,51.299 C23.586,51.065 24.091,50.889 24.35,50.806 C28.634,49.451 30.776,47.5 30.718,45.006 C30.7196865,44.7392539 30.611561,44.4835615 30.419009,44.2989537 C30.226457,44.1143459 29.9664385,44.0170829 29.7,44.03 C29.1480455,44.043101 28.711146,44.5010397 28.724,45.053 C28.748,46.082 27.905,47.583 23.748,48.898 C23.477,48.985 22.955,49.167 22.262,49.409 C21.519,49.669 20.574,49.999 19.532,50.353 L19.525,50.353 C16.7107997,51.3845725 13.8393482,52.2526858 10.925,52.953 C9.99258516,53.1321767 9.08476242,52.5441652 8.867,51.62 C8.65336419,51.0511056 8.5729723,50.4408114 8.632,49.836 C8.658,49.626 8.706,49.418 8.752,49.209 C8.95576498,48.5176489 8.98564963,47.7866772 8.839,47.081 C8.54814599,46.1623751 7.87220583,45.4156291 6.987,45.035 L6.78,44.917 C6.88797779,44.6989963 7.01691908,44.4920204 7.165,44.299 C7.33275906,44.0864363 7.40714209,43.8149259 7.3711438,43.5465408 C7.33514552,43.2781557 7.19184383,43.0358431 6.974,42.875 C6.734,42.699 6.168,42.275 5.754,41.941 C5.802,41.854 5.854,41.758 5.904,41.671 C6.061,41.396 6.24,41.076 6.415,40.706 C6.73144627,40.0050454 6.82465982,39.2237273 6.682,38.468 C6.442,37.248 5.273,36.65 4.421,36.214 C4.13330073,36.0772824 3.85736569,35.9170729 3.596,35.735 C3.38336862,35.5912941 3.18391862,35.42899 3,35.25 C3,35.098 3.163,34.73 3.925,33.803 C5.71607044,31.4972449 7.2517206,29.0039928 8.505,26.367 C8.73934083,25.9538574 8.87135428,25.4906102 8.89,25.016 C8.78670832,24.0108401 8.25404392,23.0993679 7.429,22.516 C7.029,22.145 6.644,21.795 6.599,21.469 C6.60563423,21.2329751 6.65864086,21.0005614 6.755,20.785 C6.918,20.356 7.106,19.936 7.295,19.515 C7.70505054,18.6694994 8.03256792,17.786408 8.273,16.878 L8.373,16.452 C8.58408599,15.4522697 8.85626318,14.4664205 9.188,13.5 C9.97629737,11.324256 11.1967986,9.33056659 12.776,7.639 C14.689,5.615 17.7,4.183 21.74,3.38 C24.8296146,2.70175362 27.9646074,2.24988685 31.12,2.028 C33.147307,1.91780514 35.1798695,2.10273666 37.154,2.577 C35.9141163,4.49642512 35.1787391,6.69774129 35.016,8.977 C32.6983601,7.00530458 29.8175095,5.8154489 26.784,5.577 C26.1789163,5.50887564 25.5757549,5.72011282 25.1453876,6.15086941 C24.7150203,6.581626 24.5043286,7.18497811 24.573,7.79 C24.8274653,10.822824 26.0227775,13.7004534 27.992,16.021 C24.9542366,16.2593527 22.069843,17.4530156 19.752,19.431 C19.273485,19.8115729 18.9946537,20.3895981 18.9946537,21.001 C18.9946537,21.6124019 19.273485,22.1904271 19.752,22.571 C22.068031,24.5459653 24.9503029,25.7362634 27.985,25.971 C26.0063876,28.2891285 24.8117381,31.1737188 24.572,34.212 C24.5081722,34.7783014 24.6889598,35.3449372 25.0689687,35.7696306 C25.4489776,36.1943239 25.9921134,36.4367362 26.562,36.436 C26.6368271,36.4359936 26.7116004,36.4319879 26.786,36.424 C29.8186184,36.1699221 32.6960425,34.97455 35.016,33.005 C35.2536144,36.0437232 36.4477321,38.9290703 38.427,41.247 C38.8090943,41.7247108 39.3882813,42.0019694 40,42 C40.6106743,42.0005999 41.1881607,41.722169 41.568,41.244 C43.5443635,38.9300417 44.7386002,36.0505032 44.98,33.017 C45.8068174,33.7435989 46.7244906,34.3597509 47.71,34.85 C47.1820022,35.6276659 46.724518,36.4509366 46.343,37.31 Z M44.688,29.729 C44.6718748,29.6997341 44.6541824,29.6713596 44.635,29.644 C43.9020944,28.5928143 43.3388941,27.4330065 42.966,26.207 C43.7472029,25.7608959 44.4188909,25.1459221 44.932,24.407 C46.1471628,25.0355042 47.4449681,25.4893152 48.787,25.755 C51.5270014,27.8336938 53.2219347,31.0058493 53.427,34.439 C49.9631515,34.2303508 46.7667385,32.5076017 44.688,29.729 Z M49.388,23.834 C48.1268225,23.6080648 46.9085458,23.1870154 45.777,22.586 C45.9222079,22.0697442 45.9972156,21.5362814 46,21 C45.9992878,20.6357343 45.9658197,20.2722705 45.9,19.914 C47.2043779,19.5017884 48.4432137,18.9054366 49.579,18.143 C52.9874384,17.6679378 56.432272,18.7164926 58.998,21.01 C55.924,23.467 52.7,24.419 49.389,23.834 L49.388,23.834 Z"
        id="Shape" />
      <circle id="Oval" cx="39.998" cy="21" r="1" />
    </g>
  </g>
</svg>