<svg id="Capa_1" fill="#009f88" enable-background="new 0 0 512 512" height="119" viewBox="0 0 512 512" width="91"
  xmlns="http://www.w3.org/2000/svg">
  <g>
    <path
      d="m436 60c-55.908 0-110.046-16.392-156.564-47.404l-15.116-10.077c-5.038-3.358-11.603-3.358-16.641 0l-15.116 10.077c-46.517 31.012-100.655 47.404-156.563 47.404-8.284 0-15 6.716-15 15v171.264c0 120.057 76.704 227.116 190.257 264.966 1.539.513 3.141.77 4.743.77s3.204-.257 4.743-.77c113.483-37.827 190.257-144.844 190.257-264.967v-171.263c0-8.284-6.716-15-15-15zm-15 186.263c0 105.937-66.091 199.687-165 234.872-98.909-35.185-165-128.935-165-234.872v-156.62c56.506-2.689 110.915-20.559 158.205-52.085l6.795-4.53 6.795 4.53c47.29 31.527 101.699 49.396 158.205 52.085z" />
    <path
      d="m241 226v15h-15c-8.284 0-15 6.716-15 15s6.716 15 15 15h15v15c0 8.284 6.716 15 15 15s15-6.716 15-15v-15h15c8.284 0 15-6.716 15-15s-6.716-15-15-15h-15v-15c0-8.284-6.716-15-15-15s-15 6.716-15 15z" />
    <path
      d="m151 256c0 57.897 47.103 105 105 105s105-47.103 105-105-47.103-105-105-105-105 47.103-105 105zm180 0c0 41.355-33.645 75-75 75s-75-33.645-75-75 33.645-75 75-75 75 33.645 75 75z" />
  </g>
</svg>